<svg width="1373" height="42" viewBox="0 0 1373 42" fill="none" xmlns="http://www.w3.org/2000/svg">
<line x1="916" y1="21.3261" x2="1372.52" y2="21.3261" stroke="white" stroke-width="3"/>
<path d="M916.915 19.8111C916.258 19.306 915.316 19.4288 914.811 20.0855C914.306 20.7421 914.429 21.6839 915.086 22.189L916.915 19.8111ZM915.086 22.189L938.825 40.4498L940.654 38.072L916.915 19.8111L915.086 22.189Z" fill="white"/>
<path d="M915.085 19.8111C914.429 20.3162 914.306 21.2579 914.811 21.9146C915.316 22.5712 916.258 22.694 916.915 22.1889L915.085 19.8111ZM916.915 22.1889L940.654 3.92807L938.825 1.5502L915.085 19.8111L916.915 22.1889Z" fill="white"/>
<path d="M949.784 19.8111C949.128 19.306 948.186 19.4288 947.681 20.0855C947.176 20.7421 947.299 21.6839 947.955 22.189L949.784 19.8111ZM947.955 22.189L971.694 40.4498L973.523 38.072L949.784 19.8111L947.955 22.189Z" fill="white"/>
<path d="M947.955 19.8111C947.298 20.3162 947.176 21.2579 947.681 21.9146C948.186 22.5712 949.128 22.694 949.784 22.1889L947.955 19.8111ZM949.784 22.1889L973.523 3.92807L971.694 1.5502L947.955 19.8111L949.784 22.1889Z" fill="white"/>
<path d="M982.654 19.8111C981.997 19.306 981.056 19.4288 980.55 20.0855C980.045 20.7421 980.168 21.6839 980.825 22.189L982.654 19.8111ZM980.825 22.189L1004.56 40.4498L1006.39 38.072L982.654 19.8111L980.825 22.189Z" fill="white"/>
<path d="M980.825 19.8111C980.168 20.3162 980.045 21.2579 980.55 21.9146C981.055 22.5712 981.997 22.694 982.654 22.1889L980.825 19.8111ZM982.654 22.1889L1006.39 3.92807L1004.56 1.5502L980.825 19.8111L982.654 22.1889Z" fill="white"/>
<path d="M1015.52 19.8111C1014.87 19.306 1013.92 19.4288 1013.42 20.0855C1012.91 20.7421 1013.04 21.6839 1013.69 22.189L1015.52 19.8111ZM1013.69 22.189L1037.43 40.4498L1039.26 38.072L1015.52 19.8111L1013.69 22.189Z" fill="white"/>
<path d="M1013.69 19.8111C1013.04 20.3162 1012.91 21.2579 1013.42 21.9146C1013.93 22.5712 1014.87 22.694 1015.52 22.1889L1013.69 19.8111ZM1015.52 22.1889L1039.26 3.92807L1037.43 1.5502L1013.69 19.8111L1015.52 22.1889Z" fill="white"/>
<path d="M1344.22 19.8111C1343.56 19.306 1342.62 19.4288 1342.12 20.0855C1341.61 20.7421 1341.73 21.6839 1342.39 22.189L1344.22 19.8111ZM1342.39 22.189L1366.13 40.4498L1367.96 38.072L1344.22 19.8111L1342.39 22.189Z" fill="white"/>
<path d="M1342.39 19.8111C1341.73 20.3162 1341.61 21.2579 1342.12 21.9146C1342.62 22.5712 1343.56 22.694 1344.22 22.1889L1342.39 19.8111ZM1344.22 22.1889L1367.96 3.92807L1366.13 1.5502L1342.39 19.8111L1344.22 22.1889Z" fill="white"/>
<path d="M1311.35 19.8111C1310.69 19.306 1309.75 19.4288 1309.25 20.0855C1308.74 20.7421 1308.86 21.6839 1309.52 22.189L1311.35 19.8111ZM1309.52 22.189L1333.26 40.4498L1335.09 38.072L1311.35 19.8111L1309.52 22.189Z" fill="white"/>
<path d="M1309.52 19.8111C1308.86 20.3162 1308.74 21.2579 1309.25 21.9146C1309.75 22.5712 1310.69 22.694 1311.35 22.1889L1309.52 19.8111ZM1311.35 22.1889L1335.09 3.92807L1333.26 1.5502L1309.52 19.8111L1311.35 22.1889Z" fill="white"/>
<path d="M1278.48 19.8111C1277.82 19.306 1276.88 19.4288 1276.38 20.0855C1275.87 20.7421 1275.99 21.6839 1276.65 22.189L1278.48 19.8111ZM1276.65 22.189L1300.39 40.4498L1302.22 38.072L1278.48 19.8111L1276.65 22.189Z" fill="white"/>
<path d="M1276.65 19.8111C1275.99 20.3162 1275.87 21.2579 1276.38 21.9146C1276.88 22.5712 1277.82 22.694 1278.48 22.1889L1276.65 19.8111ZM1278.48 22.1889L1302.22 3.92807L1300.39 1.5502L1276.65 19.8111L1278.48 22.1889Z" fill="white"/>
<path d="M1245.61 19.8111C1244.95 19.306 1244.01 19.4288 1243.51 20.0855C1243 20.7421 1243.12 21.6839 1243.78 22.189L1245.61 19.8111ZM1243.78 22.189L1267.52 40.4498L1269.35 38.072L1245.61 19.8111L1243.78 22.189Z" fill="white"/>
<path d="M1243.78 19.8111C1243.12 20.3162 1243 21.2579 1243.51 21.9146C1244.01 22.5712 1244.95 22.694 1245.61 22.1889L1243.78 19.8111ZM1245.61 22.1889L1269.35 3.92807L1267.52 1.5502L1243.78 19.8111L1245.61 22.1889Z" fill="white"/>
<path d="M1212.74 19.8111C1212.08 19.306 1211.14 19.4288 1210.64 20.0855C1210.13 20.7421 1210.25 21.6839 1210.91 22.189L1212.74 19.8111ZM1210.91 22.189L1234.65 40.4498L1236.48 38.072L1212.74 19.8111L1210.91 22.189Z" fill="white"/>
<path d="M1210.91 19.8111C1210.25 20.3162 1210.13 21.2579 1210.64 21.9146C1211.14 22.5712 1212.08 22.694 1212.74 22.1889L1210.91 19.8111ZM1212.74 22.1889L1236.48 3.92807L1234.65 1.5502L1210.91 19.8111L1212.74 22.1889Z" fill="white"/>
<path d="M1179.87 19.8111C1179.21 19.306 1178.27 19.4288 1177.77 20.0855C1177.26 20.7421 1177.38 21.6839 1178.04 22.189L1179.87 19.8111ZM1178.04 22.189L1201.78 40.4498L1203.61 38.072L1179.87 19.8111L1178.04 22.189Z" fill="white"/>
<path d="M1178.04 19.8111C1177.39 20.3162 1177.26 21.2579 1177.77 21.9146C1178.27 22.5712 1179.21 22.694 1179.87 22.1889L1178.04 19.8111ZM1179.87 22.1889L1203.61 3.92807L1201.78 1.5502L1178.04 19.8111L1179.87 22.1889Z" fill="white"/>
<path d="M1147 19.8111C1146.34 19.306 1145.4 19.4288 1144.9 20.0855C1144.39 20.7421 1144.52 21.6839 1145.17 22.189L1147 19.8111ZM1145.17 22.189L1168.91 40.4498L1170.74 38.072L1147 19.8111L1145.17 22.189Z" fill="white"/>
<path d="M1145.17 19.8111C1144.52 20.3162 1144.39 21.2579 1144.9 21.9146C1145.4 22.5712 1146.34 22.694 1147 22.1889L1145.17 19.8111ZM1147 22.1889L1170.74 3.92807L1168.91 1.5502L1145.17 19.8111L1147 22.1889Z" fill="white"/>
<path d="M1114.13 19.8111C1113.48 19.306 1112.53 19.4288 1112.03 20.0855C1111.52 20.7421 1111.65 21.6839 1112.3 22.189L1114.13 19.8111ZM1112.3 22.189L1136.04 40.4498L1137.87 38.072L1114.13 19.8111L1112.3 22.189Z" fill="white"/>
<path d="M1112.3 19.8111C1111.65 20.3162 1111.52 21.2579 1112.03 21.9146C1112.53 22.5712 1113.48 22.694 1114.13 22.1889L1112.3 19.8111ZM1114.13 22.1889L1137.87 3.92807L1136.04 1.5502L1112.3 19.8111L1114.13 22.1889Z" fill="white"/>
<path d="M1081.26 19.8111C1080.61 19.306 1079.66 19.4288 1079.16 20.0855C1078.65 20.7421 1078.78 21.6839 1079.43 22.189L1081.26 19.8111ZM1079.43 22.189L1103.17 40.4498L1105 38.072L1081.26 19.8111L1079.43 22.189Z" fill="white"/>
<path d="M1079.43 19.8111C1078.78 20.3162 1078.65 21.2579 1079.16 21.9146C1079.66 22.5712 1080.61 22.694 1081.26 22.1889L1079.43 19.8111ZM1081.26 22.1889L1105 3.92807L1103.17 1.5502L1079.43 19.8111L1081.26 22.1889Z" fill="white"/>
<path d="M1048.39 19.8111C1047.74 19.306 1046.79 19.4288 1046.29 20.0855C1045.78 20.7421 1045.91 21.6839 1046.56 22.189L1048.39 19.8111ZM1046.56 22.189L1070.3 40.4498L1072.13 38.072L1048.39 19.8111L1046.56 22.189Z" fill="white"/>
<path d="M1046.56 19.8111C1045.91 20.3162 1045.78 21.2579 1046.29 21.9146C1046.79 22.5712 1047.74 22.694 1048.39 22.1889L1046.56 19.8111ZM1048.39 22.1889L1072.13 3.92807L1070.3 1.5502L1046.56 19.8111L1048.39 22.1889Z" fill="white"/>
<line x1="459" y1="21.3261" x2="915.522" y2="21.3261" stroke="white" stroke-width="3"/>
<path d="M459.915 19.8111C459.258 19.306 458.316 19.4288 457.811 20.0855C457.306 20.7421 457.429 21.6839 458.086 22.189L459.915 19.8111ZM458.086 22.189L481.825 40.4498L483.654 38.072L459.915 19.8111L458.086 22.189Z" fill="white"/>
<path d="M458.085 19.8111C457.429 20.3162 457.306 21.2579 457.811 21.9146C458.316 22.5712 459.258 22.694 459.915 22.1889L458.085 19.8111ZM459.915 22.1889L483.654 3.92807L481.825 1.5502L458.085 19.8111L459.915 22.1889Z" fill="white"/>
<path d="M492.784 19.8111C492.127 19.306 491.186 19.4288 490.681 20.0855C490.175 20.7421 490.298 21.6839 490.955 22.189L492.784 19.8111ZM490.955 22.189L514.694 40.4498L516.523 38.072L492.784 19.8111L490.955 22.189Z" fill="white"/>
<path d="M490.955 19.8111C490.298 20.3162 490.176 21.2579 490.681 21.9146C491.186 22.5712 492.128 22.694 492.784 22.1889L490.955 19.8111ZM492.784 22.1889L516.523 3.92807L514.694 1.5502L490.955 19.8111L492.784 22.1889Z" fill="white"/>
<path d="M525.654 19.8111C524.997 19.306 524.055 19.4288 523.55 20.0855C523.045 20.7421 523.168 21.6839 523.825 22.189L525.654 19.8111ZM523.825 22.189L547.564 40.4498L549.393 38.072L525.654 19.8111L523.825 22.189Z" fill="white"/>
<path d="M523.824 19.8111C523.168 20.3162 523.045 21.2579 523.55 21.9146C524.055 22.5712 524.997 22.694 525.654 22.1889L523.824 19.8111ZM525.654 22.1889L549.393 3.92807L547.564 1.5502L523.824 19.8111L525.654 22.1889Z" fill="white"/>
<path d="M558.523 19.8111C557.866 19.306 556.925 19.4288 556.42 20.0855C555.914 20.7421 556.037 21.6839 556.694 22.189L558.523 19.8111ZM556.694 22.189L580.433 40.4498L582.262 38.072L558.523 19.8111L556.694 22.189Z" fill="white"/>
<path d="M556.694 19.8111C556.037 20.3162 555.915 21.2579 556.42 21.9146C556.925 22.5712 557.867 22.694 558.523 22.1889L556.694 19.8111ZM558.523 22.1889L582.262 3.92807L580.433 1.5502L556.694 19.8111L558.523 22.1889Z" fill="white"/>
<path d="M887.219 19.8111C886.562 19.306 885.62 19.4288 885.115 20.0855C884.61 20.7421 884.733 21.6839 885.39 22.189L887.219 19.8111ZM885.39 22.189L909.129 40.4498L910.958 38.072L887.219 19.8111L885.39 22.189Z" fill="white"/>
<path d="M885.39 19.8111C884.733 20.3162 884.611 21.2579 885.116 21.9146C885.621 22.5712 886.563 22.694 887.219 22.1889L885.39 19.8111ZM887.219 22.1889L910.958 3.92807L909.129 1.5502L885.39 19.8111L887.219 22.1889Z" fill="white"/>
<path d="M854.349 19.8111C853.693 19.306 852.751 19.4288 852.246 20.0855C851.741 20.7421 851.864 21.6839 852.52 22.189L854.349 19.8111ZM852.52 22.189L876.259 40.4498L878.088 38.072L854.349 19.8111L852.52 22.189Z" fill="white"/>
<path d="M852.52 19.8111C851.864 20.3162 851.741 21.2579 852.246 21.9146C852.751 22.5712 853.693 22.694 854.35 22.1889L852.52 19.8111ZM854.35 22.1889L878.089 3.92807L876.26 1.5502L852.52 19.8111L854.35 22.1889Z" fill="white"/>
<path d="M821.48 19.8111C820.823 19.306 819.882 19.4288 819.377 20.0855C818.872 20.7421 818.994 21.6839 819.651 22.189L821.48 19.8111ZM819.651 22.189L843.39 40.4498L845.219 38.072L821.48 19.8111L819.651 22.189Z" fill="white"/>
<path d="M819.65 19.8111C818.994 20.3162 818.871 21.2579 819.376 21.9146C819.881 22.5712 820.823 22.694 821.48 22.1889L819.65 19.8111ZM821.48 22.1889L845.219 3.92807L843.39 1.5502L819.65 19.8111L821.48 22.1889Z" fill="white"/>
<path d="M788.61 19.8111C787.954 19.306 787.012 19.4288 786.507 20.0855C786.002 20.7421 786.125 21.6839 786.781 22.189L788.61 19.8111ZM786.781 22.189L810.52 40.4498L812.35 38.072L788.61 19.8111L786.781 22.189Z" fill="white"/>
<path d="M786.781 19.8111C786.124 20.3162 786.001 21.2579 786.506 21.9146C787.011 22.5712 787.953 22.694 788.61 22.1889L786.781 19.8111ZM788.61 22.1889L812.349 3.92807L810.52 1.5502L786.781 19.8111L788.61 22.1889Z" fill="white"/>
<path d="M755.74 19.8111C755.084 19.306 754.142 19.4288 753.637 20.0855C753.132 20.7421 753.255 21.6839 753.911 22.189L755.74 19.8111ZM753.911 22.189L777.65 40.4498L779.48 38.072L755.74 19.8111L753.911 22.189Z" fill="white"/>
<path d="M753.912 19.8111C753.255 20.3162 753.132 21.2579 753.637 21.9146C754.142 22.5712 755.084 22.694 755.741 22.1889L753.912 19.8111ZM755.741 22.1889L779.48 3.92807L777.651 1.5502L753.912 19.8111L755.741 22.1889Z" fill="white"/>
<path d="M722.871 19.8111C722.214 19.306 721.272 19.4288 720.767 20.0855C720.262 20.7421 720.385 21.6839 721.042 22.189L722.871 19.8111ZM721.042 22.189L744.781 40.4498L746.61 38.072L722.871 19.8111L721.042 22.189Z" fill="white"/>
<path d="M721.042 19.8111C720.385 20.3162 720.263 21.2579 720.768 21.9146C721.273 22.5712 722.214 22.694 722.871 22.1889L721.042 19.8111ZM722.871 22.1889L746.61 3.92807L744.781 1.5502L721.042 19.8111L722.871 22.1889Z" fill="white"/>
<path d="M690.002 19.8111C689.345 19.306 688.403 19.4288 687.898 20.0855C687.393 20.7421 687.516 21.6839 688.172 22.189L690.002 19.8111ZM688.172 22.189L711.912 40.4498L713.741 38.072L690.002 19.8111L688.172 22.189Z" fill="white"/>
<path d="M688.172 19.8111C687.516 20.3162 687.393 21.2579 687.898 21.9146C688.403 22.5712 689.345 22.694 690.001 22.1889L688.172 19.8111ZM690.001 22.1889L713.741 3.92807L711.911 1.5502L688.172 19.8111L690.001 22.1889Z" fill="white"/>
<path d="M657.132 19.8111C656.475 19.306 655.534 19.4288 655.028 20.0855C654.523 20.7421 654.646 21.6839 655.303 22.189L657.132 19.8111ZM655.303 22.189L679.042 40.4498L680.871 38.072L657.132 19.8111L655.303 22.189Z" fill="white"/>
<path d="M655.303 19.8111C654.646 20.3162 654.523 21.2579 655.028 21.9146C655.533 22.5712 656.475 22.694 657.132 22.1889L655.303 19.8111ZM657.132 22.1889L680.871 3.92807L679.042 1.5502L655.303 19.8111L657.132 22.1889Z" fill="white"/>
<path d="M624.262 19.8111C623.606 19.306 622.664 19.4288 622.159 20.0855C621.654 20.7421 621.777 21.6839 622.433 22.189L624.262 19.8111ZM622.433 22.189L646.172 40.4498L648.001 38.072L624.262 19.8111L622.433 22.189Z" fill="white"/>
<path d="M622.433 19.8111C621.776 20.3162 621.654 21.2579 622.159 21.9146C622.664 22.5712 623.606 22.694 624.262 22.1889L622.433 19.8111ZM624.262 22.1889L648.001 3.92807L646.172 1.5502L622.433 19.8111L624.262 22.1889Z" fill="white"/>
<path d="M591.393 19.8111C590.736 19.306 589.795 19.4288 589.289 20.0855C588.784 20.7421 588.907 21.6839 589.564 22.189L591.393 19.8111ZM589.564 22.189L613.303 40.4498L615.132 38.072L591.393 19.8111L589.564 22.189Z" fill="white"/>
<path d="M589.564 19.8111C588.907 20.3162 588.784 21.2579 589.289 21.9146C589.794 22.5712 590.736 22.694 591.393 22.1889L589.564 19.8111ZM591.393 22.1889L615.132 3.92807L613.303 1.5502L589.564 19.8111L591.393 22.1889Z" fill="white"/>
<line x1="2" y1="21.3261" x2="458.522" y2="21.3261" stroke="white" stroke-width="3"/>
<path d="M2.91469 19.8111C2.25806 19.306 1.31629 19.4288 0.811192 20.0855C0.306091 20.7421 0.42893 21.6839 1.08556 22.189L2.91469 19.8111ZM1.08556 22.189L24.8247 40.4498L26.6538 38.072L2.91469 19.8111L1.08556 22.189Z" fill="white"/>
<path d="M1.08543 19.8111C0.428803 20.3162 0.305963 21.2579 0.811064 21.9146C1.31616 22.5712 2.25793 22.694 2.91457 22.1889L1.08543 19.8111ZM2.91457 22.1889L26.6537 3.92807L24.8246 1.5502L1.08543 19.8111L2.91457 22.1889Z" fill="white"/>
<path d="M35.7841 19.8111C35.1274 19.306 34.1857 19.4288 33.6806 20.0855C33.1755 20.7421 33.2983 21.6839 33.9549 22.189L35.7841 19.8111ZM33.9549 22.189L57.6941 40.4498L59.5232 38.072L35.7841 19.8111L33.9549 22.189Z" fill="white"/>
<path d="M33.9551 19.8111C33.2984 20.3162 33.1756 21.2579 33.6807 21.9146C34.1858 22.5712 35.1276 22.694 35.7842 22.1889L33.9551 19.8111ZM35.7842 22.1889L59.5233 3.92807L57.6942 1.5502L33.9551 19.8111L35.7842 22.1889Z" fill="white"/>
<path d="M68.6537 19.8111C67.9971 19.306 67.0553 19.4288 66.5502 20.0855C66.0451 20.7421 66.1679 21.6839 66.8246 22.189L68.6537 19.8111ZM66.8246 22.189L90.5637 40.4498L92.3928 38.072L68.6537 19.8111L66.8246 22.189Z" fill="white"/>
<path d="M66.8244 19.8111C66.1678 20.3162 66.045 21.2579 66.5501 21.9146C67.0552 22.5712 67.9969 22.694 68.6536 22.1889L66.8244 19.8111ZM68.6536 22.1889L92.3927 3.92807L90.5636 1.5502L66.8244 19.8111L68.6536 22.1889Z" fill="white"/>
<path d="M101.523 19.8111C100.866 19.306 99.9247 19.4288 99.4196 20.0855C98.9145 20.7421 99.0373 21.6839 99.694 22.189L101.523 19.8111ZM99.694 22.189L123.433 40.4498L125.262 38.072L101.523 19.8111L99.694 22.189Z" fill="white"/>
<path d="M99.6941 19.8111C99.0374 20.3162 98.9146 21.2579 99.4197 21.9146C99.9248 22.5712 100.867 22.694 101.523 22.1889L99.6941 19.8111ZM101.523 22.1889L125.262 3.92807L123.433 1.5502L99.6941 19.8111L101.523 22.1889Z" fill="white"/>
<path d="M430.219 19.8111C429.562 19.306 428.62 19.4288 428.115 20.0855C427.61 20.7421 427.733 21.6839 428.39 22.189L430.219 19.8111ZM428.39 22.189L452.129 40.4498L453.958 38.072L430.219 19.8111L428.39 22.189Z" fill="white"/>
<path d="M428.39 19.8111C427.733 20.3162 427.61 21.2579 428.116 21.9146C428.621 22.5712 429.562 22.694 430.219 22.1889L428.39 19.8111ZM430.219 22.1889L453.958 3.92807L452.129 1.5502L428.39 19.8111L430.219 22.1889Z" fill="white"/>
<path d="M397.349 19.8111C396.693 19.306 395.751 19.4288 395.246 20.0855C394.741 20.7421 394.864 21.6839 395.52 22.189L397.349 19.8111ZM395.52 22.189L419.259 40.4498L421.088 38.072L397.349 19.8111L395.52 22.189Z" fill="white"/>
<path d="M395.52 19.8111C394.864 20.3162 394.741 21.2579 395.246 21.9146C395.751 22.5712 396.693 22.694 397.349 22.1889L395.52 19.8111ZM397.349 22.1889L421.089 3.92807L419.259 1.5502L395.52 19.8111L397.349 22.1889Z" fill="white"/>
<path d="M364.48 19.8111C363.823 19.306 362.881 19.4288 362.376 20.0855C361.871 20.7421 361.994 21.6839 362.651 22.189L364.48 19.8111ZM362.651 22.189L386.39 40.4498L388.219 38.072L364.48 19.8111L362.651 22.189Z" fill="white"/>
<path d="M362.651 19.8111C361.994 20.3162 361.871 21.2579 362.376 21.9146C362.881 22.5712 363.823 22.694 364.48 22.1889L362.651 19.8111ZM364.48 22.1889L388.219 3.92807L386.39 1.5502L362.651 19.8111L364.48 22.1889Z" fill="white"/>
<path d="M331.61 19.8111C330.954 19.306 330.012 19.4288 329.507 20.0855C329.002 20.7421 329.124 21.6839 329.781 22.189L331.61 19.8111ZM329.781 22.189L353.52 40.4498L355.349 38.072L331.61 19.8111L329.781 22.189Z" fill="white"/>
<path d="M329.781 19.8111C329.124 20.3162 329.002 21.2579 329.507 21.9146C330.012 22.5712 330.953 22.694 331.61 22.1889L329.781 19.8111ZM331.61 22.1889L355.349 3.92807L353.52 1.5502L329.781 19.8111L331.61 22.1889Z" fill="white"/>
<path d="M298.741 19.8111C298.084 19.306 297.142 19.4288 296.637 20.0855C296.132 20.7421 296.255 21.6839 296.911 22.189L298.741 19.8111ZM296.911 22.189L320.651 40.4498L322.48 38.072L298.741 19.8111L296.911 22.189Z" fill="white"/>
<path d="M296.912 19.8111C296.255 20.3162 296.132 21.2579 296.637 21.9146C297.142 22.5712 298.084 22.694 298.741 22.1889L296.912 19.8111ZM298.741 22.1889L322.48 3.92807L320.651 1.5502L296.912 19.8111L298.741 22.1889Z" fill="white"/>
<path d="M265.871 19.8111C265.214 19.306 264.273 19.4288 263.767 20.0855C263.262 20.7421 263.385 21.6839 264.042 22.189L265.871 19.8111ZM264.042 22.189L287.781 40.4498L289.61 38.072L265.871 19.8111L264.042 22.189Z" fill="white"/>
<path d="M264.042 19.8111C263.385 20.3162 263.263 21.2579 263.768 21.9146C264.273 22.5712 265.214 22.694 265.871 22.1889L264.042 19.8111ZM265.871 22.1889L289.61 3.92807L287.781 1.5502L264.042 19.8111L265.871 22.1889Z" fill="white"/>
<path d="M233.002 19.8111C232.345 19.306 231.403 19.4288 230.898 20.0855C230.393 20.7421 230.516 21.6839 231.172 22.189L233.002 19.8111ZM231.172 22.189L254.912 40.4498L256.741 38.072L233.002 19.8111L231.172 22.189Z" fill="white"/>
<path d="M231.173 19.8111C230.516 20.3162 230.393 21.2579 230.898 21.9146C231.403 22.5712 232.345 22.694 233.002 22.1889L231.173 19.8111ZM233.002 22.1889L256.741 3.92807L254.912 1.5502L231.173 19.8111L233.002 22.1889Z" fill="white"/>
<path d="M200.132 19.8111C199.475 19.306 198.534 19.4288 198.028 20.0855C197.523 20.7421 197.646 21.6839 198.303 22.189L200.132 19.8111ZM198.303 22.189L222.042 40.4498L223.871 38.072L200.132 19.8111L198.303 22.189Z" fill="white"/>
<path d="M198.303 19.8111C197.646 20.3162 197.523 21.2579 198.029 21.9146C198.534 22.5712 199.475 22.694 200.132 22.1889L198.303 19.8111ZM200.132 22.1889L223.871 3.92807L222.042 1.5502L198.303 19.8111L200.132 22.1889Z" fill="white"/>
<path d="M167.263 19.8111C166.606 19.306 165.664 19.4288 165.159 20.0855C164.654 20.7421 164.777 21.6839 165.433 22.189L167.263 19.8111ZM165.433 22.189L189.173 40.4498L191.002 38.072L167.263 19.8111L165.433 22.189Z" fill="white"/>
<path d="M165.433 19.8111C164.776 20.3162 164.654 21.2579 165.159 21.9146C165.664 22.5712 166.606 22.694 167.262 22.1889L165.433 19.8111ZM167.262 22.1889L191.001 3.92807L189.172 1.5502L165.433 19.8111L167.262 22.1889Z" fill="white"/>
<path d="M134.393 19.8111C133.736 19.306 132.795 19.4288 132.289 20.0855C131.784 20.7421 131.907 21.6839 132.564 22.189L134.393 19.8111ZM132.564 22.189L156.303 40.4498L158.132 38.072L134.393 19.8111L132.564 22.189Z" fill="white"/>
<path d="M132.564 19.8111C131.907 20.3162 131.784 21.2579 132.289 21.9146C132.794 22.5712 133.736 22.694 134.393 22.1889L132.564 19.8111ZM134.393 22.1889L158.132 3.92807L156.303 1.5502L132.564 19.8111L134.393 22.1889Z" fill="white"/>
</svg>
