<svg width="516" height="516" viewBox="0 0 516 516" fill="none" xmlns="http://www.w3.org/2000/svg">
<circle cx="258" cy="258" r="254" stroke="black" stroke-width="8"/>
<path d="M257.633 45.1568L336.206 258" stroke="black" stroke-width="8" stroke-linecap="round"/>
<path d="M257.634 470.843L179.062 258" stroke="black" stroke-width="8" stroke-linecap="round"/>
<path d="M179.062 258L257.634 45.1568" stroke="black" stroke-width="8" stroke-linecap="round"/>
<path d="M336.206 258L257.633 470.843" stroke="black" stroke-width="8" stroke-linecap="round"/>
<path d="M370.908 368.745C371.639 370.828 373.781 371.617 375.693 370.507C377.605 369.397 378.562 366.809 377.831 364.726L370.908 368.745ZM336.206 258L332.744 260.009L370.908 368.745L374.369 366.735L377.831 364.726L339.667 255.99L336.206 258Z" fill="black"/>
<path d="M374.37 366.735L336.206 471.422" stroke="black" stroke-width="8"/>
<path d="M370.999 154.96C371.73 157.043 373.873 157.832 375.784 156.722C377.696 155.612 378.654 153.024 377.922 150.941L370.999 154.96ZM336.297 44.2154L332.835 46.2249L370.999 154.96L374.461 152.951L377.922 150.941L339.759 42.2059L336.297 44.2154Z" fill="black"/>
<path d="M374.461 152.951L336.297 257.637" stroke="black" stroke-width="8"/>
<path d="M144.093 147.255C143.362 145.172 141.219 144.383 139.307 145.493C137.395 146.603 136.438 149.191 137.169 151.274L144.093 147.255ZM178.795 258L182.257 255.99L144.093 147.255L140.631 149.265L137.169 151.274L175.333 260.009L178.795 258Z" fill="black"/>
<path d="M140.631 149.265L178.795 44.5783" stroke="black" stroke-width="8"/>
<path d="M144.002 361.04C143.27 358.957 141.128 358.168 139.216 359.278C137.304 360.388 136.347 362.976 137.078 365.059L144.002 361.04ZM178.704 471.785L182.165 469.775L144.002 361.04L140.54 363.049L137.078 365.059L175.242 473.794L178.704 471.785Z" fill="black"/>
<path d="M140.539 363.049L178.703 258.363" stroke="black" stroke-width="8"/>
<circle cx="396.5" cy="258.5" r="7.5" fill="black"/>
<circle cx="438.5" cy="258.5" r="7.5" fill="black"/>
<circle cx="77.5" cy="258.5" r="7.5" fill="black"/>
<circle cx="119.5" cy="258.5" r="7.5" fill="black"/>
</svg>
