<svg width="52" height="53" viewBox="0 0 52 53" fill="none" xmlns="http://www.w3.org/2000/svg">
<circle cx="25.8808" cy="26.7619" r="9.90476" stroke="black" stroke-width="4"/>
<path d="M34.2142 18.4286L42.5475 10.0953" stroke="black" stroke-width="4"/>
<path d="M17.5481 18.4289L9.21416 10.0954" stroke="black" stroke-width="4"/>
<path d="M17.5475 35.0953L9.21415 43.4286" stroke="black" stroke-width="4"/>
<path d="M34.2142 35.0953L42.5475 43.4286" stroke="black" stroke-width="4"/>
<path d="M42.6667 43.4286C48.381 43.4286 49.8095 38.6667 49.8095 36.2857" stroke="black" stroke-width="4"/>
<path d="M35.5238 50.5714C41.2381 50.5714 42.6667 45.8095 42.6667 43.4286" stroke="black" stroke-width="4"/>
<path d="M9.33331 10.0952C3.61903 10.0952 2.19046 14.8571 2.19046 17.2381" stroke="black" stroke-width="4"/>
<path d="M16.4762 2.95242C10.7619 2.95242 9.33334 7.71432 9.33334 10.0953" stroke="black" stroke-width="4"/>
<path d="M42.6667 10.0953C48.381 10.0953 49.8095 14.8572 49.8095 17.2381" stroke="black" stroke-width="4"/>
<path d="M35.5238 2.95239C41.2381 2.95239 42.6667 7.7143 42.6667 10.0952" stroke="black" stroke-width="4"/>
<path d="M9.33331 43.4286C3.61903 43.4286 2.19046 38.6667 2.19046 36.2857" stroke="black" stroke-width="4"/>
<path d="M16.4762 50.5714C10.7619 50.5714 9.33334 45.8095 9.33334 43.4286" stroke="black" stroke-width="4"/>
<circle cx="50.5" cy="3.5" r="1.5" fill="black"/>
<circle cx="50.5" cy="51.5" r="1.5" fill="black"/>
<circle cx="1.5" cy="51.5" r="1.5" fill="black"/>
<circle cx="1.5" cy="3.5" r="1.5" fill="black"/>
</svg>
