<svg width="1280" height="32" viewBox="0 0 1280 32" fill="none" xmlns="http://www.w3.org/2000/svg">
<path d="M16.6012 17.0208C17.8195 17.6705 19.3338 17.2096 19.9836 15.9914C20.6333 14.7731 20.1724 13.2588 18.9542 12.609L16.6012 17.0208ZM-1.17649 7.53922L16.6012 17.0208L18.9542 12.609L1.17648 3.12747L-1.17649 7.53922Z" fill="black"/>
<path d="M36.7318 7.53925C37.9501 6.88958 38.4111 5.37527 37.7614 4.15696C37.1117 2.93865 35.5974 2.47768 34.3791 3.12735L36.7318 7.53925ZM34.3791 3.12735L16.5996 12.6084L18.9523 17.0203L36.7318 7.53925L34.3791 3.12735Z" fill="black"/>
<path d="M52.1569 17.0208C53.3751 17.6705 54.8895 17.2096 55.5392 15.9914C56.189 14.7731 55.7281 13.2588 54.5098 12.609L52.1569 17.0208ZM34.3792 7.53922L52.1569 17.0208L54.5098 12.609L36.7321 3.12747L34.3792 7.53922Z" fill="black"/>
<path d="M72.2875 7.53925C73.5058 6.88958 73.9667 5.37527 73.3171 4.15696C72.6674 2.93865 71.1531 2.47768 69.9348 3.12735L72.2875 7.53925ZM69.9348 3.12735L52.1553 12.6084L54.508 17.0203L72.2875 7.53925L69.9348 3.12735Z" fill="black"/>
<path d="M87.7124 17.0208C88.9307 17.6705 90.445 17.2096 91.0948 15.9914C91.7445 14.7731 91.2837 13.2588 90.0654 12.609L87.7124 17.0208ZM69.9347 7.53922L87.7124 17.0208L90.0654 12.609L72.2877 3.12747L69.9347 7.53922Z" fill="black"/>
<path d="M107.843 7.53925C109.061 6.88958 109.522 5.37527 108.873 4.15696C108.223 2.93865 106.709 2.47768 105.49 3.12735L107.843 7.53925ZM105.49 3.12735L87.7109 12.6084L90.0636 17.0203L107.843 7.53925L105.49 3.12735Z" fill="black"/>
<path d="M123.268 17.0058C124.486 17.6555 126.001 17.1946 126.65 15.9764C127.3 14.7581 126.839 13.2437 125.621 12.594L123.268 17.0058ZM105.49 7.5242L123.268 17.0058L125.621 12.594L107.843 3.11245L105.49 7.5242Z" fill="black"/>
<path d="M143.399 7.52424C144.617 6.87456 145.078 5.36026 144.428 4.14195C143.779 2.92363 142.264 2.46266 141.046 3.11234L143.399 7.52424ZM141.046 3.11234L123.267 12.5934L125.619 17.0053L143.399 7.52424L141.046 3.11234Z" fill="black"/>
<path d="M158.824 17.0058C160.042 17.6555 161.556 17.1946 162.206 15.9764C162.856 14.7581 162.395 13.2437 161.176 12.594L158.824 17.0058ZM141.046 7.5242L158.824 17.0058L161.176 12.594L143.399 3.11245L141.046 7.5242Z" fill="black"/>
<path d="M178.954 7.52424C180.172 6.87456 180.633 5.36026 179.984 4.14195C179.334 2.92363 177.82 2.46266 176.601 3.11234L178.954 7.52424ZM176.601 3.11234L158.822 12.5934L161.174 17.0053L178.954 7.52424L176.601 3.11234Z" fill="black"/>
<path d="M194.379 17.0058C195.597 17.6555 197.112 17.1946 197.761 15.9764C198.411 14.7581 197.95 13.2437 196.732 12.594L194.379 17.0058ZM176.601 7.5242L194.379 17.0058L196.732 12.594L178.954 3.11245L176.601 7.5242Z" fill="black"/>
<path d="M214.51 7.52424C215.728 6.87456 216.189 5.36026 215.539 4.14195C214.89 2.92363 213.375 2.46266 212.157 3.11234L214.51 7.52424ZM212.157 3.11234L194.377 12.5934L196.73 17.0053L214.51 7.52424L212.157 3.11234Z" fill="black"/>
<path d="M229.935 17.0058C231.153 17.6555 232.667 17.1946 233.317 15.9764C233.967 14.7581 233.506 13.2437 232.288 12.594L229.935 17.0058ZM212.157 7.5242L229.935 17.0058L232.288 12.594L214.51 3.11245L212.157 7.5242Z" fill="black"/>
<path d="M250.065 7.52424C251.284 6.87456 251.745 5.36026 251.095 4.14195C250.445 2.92363 248.931 2.46266 247.713 3.11234L250.065 7.52424ZM247.713 3.11234L229.933 12.5934L232.286 17.0053L250.065 7.52424L247.713 3.11234Z" fill="black"/>
<path d="M265.49 17.0058C266.709 17.6555 268.223 17.1946 268.873 15.9764C269.522 14.7581 269.061 13.2437 267.843 12.594L265.49 17.0058ZM247.713 7.5242L265.49 17.0058L267.843 12.594L250.066 3.11245L247.713 7.5242Z" fill="black"/>
<path d="M285.621 7.52424C286.839 6.87456 287.3 5.36026 286.651 4.14195C286.001 2.92363 284.487 2.46266 283.268 3.11234L285.621 7.52424ZM283.268 3.11234L265.489 12.5934L267.841 17.0053L285.621 7.52424L283.268 3.11234Z" fill="black"/>
<path d="M301.046 17.0058C302.264 17.6555 303.779 17.1946 304.428 15.9764C305.078 14.7581 304.617 13.2437 303.399 12.594L301.046 17.0058ZM283.268 7.5242L301.046 17.0058L303.399 12.594L285.621 3.11245L283.268 7.5242Z" fill="black"/>
<path d="M321.177 7.52424C322.395 6.87456 322.856 5.36026 322.206 4.14195C321.557 2.92363 320.042 2.46266 318.824 3.11234L321.177 7.52424ZM318.824 3.11234L301.044 12.5934L303.397 17.0053L321.177 7.52424L318.824 3.11234Z" fill="black"/>
<path d="M16.6012 28.5407C17.8195 29.1904 19.3338 28.7295 19.9836 27.5113C20.6333 26.293 20.1724 24.7787 18.9542 24.1289L16.6012 28.5407ZM-1.17649 19.0591L16.6012 28.5407L18.9542 24.1289L1.17648 14.6474L-1.17649 19.0591Z" fill="black"/>
<path d="M36.7318 19.0593C37.9501 18.4096 38.4111 16.8953 37.7614 15.677C37.1117 14.4587 35.5974 13.9977 34.3791 14.6474L36.7318 19.0593ZM34.3791 14.6474L16.5996 24.1284L18.9523 28.5403L36.7318 19.0593L34.3791 14.6474Z" fill="black"/>
<path d="M52.1569 28.5407C53.3751 29.1904 54.8895 28.7295 55.5392 27.5113C56.189 26.293 55.7281 24.7787 54.5098 24.1289L52.1569 28.5407ZM34.3792 19.0591L52.1569 28.5407L54.5098 24.1289L36.7321 14.6474L34.3792 19.0591Z" fill="black"/>
<path d="M72.2875 19.0593C73.5058 18.4096 73.9667 16.8953 73.3171 15.677C72.6674 14.4587 71.1531 13.9977 69.9348 14.6474L72.2875 19.0593ZM69.9348 14.6474L52.1553 24.1284L54.508 28.5403L72.2875 19.0593L69.9348 14.6474Z" fill="black"/>
<path d="M87.7124 28.5407C88.9307 29.1904 90.445 28.7295 91.0948 27.5113C91.7445 26.293 91.2837 24.7787 90.0654 24.1289L87.7124 28.5407ZM69.9347 19.0591L87.7124 28.5407L90.0654 24.1289L72.2877 14.6474L69.9347 19.0591Z" fill="black"/>
<path d="M107.843 19.0593C109.061 18.4096 109.522 16.8953 108.873 15.677C108.223 14.4587 106.709 13.9977 105.49 14.6474L107.843 19.0593ZM105.49 14.6474L87.7109 24.1284L90.0636 28.5403L107.843 19.0593L105.49 14.6474Z" fill="black"/>
<path d="M123.268 28.5258C124.486 29.1755 126.001 28.7146 126.65 27.4964C127.3 26.2781 126.839 24.7638 125.621 24.114L123.268 28.5258ZM105.49 19.0442L123.268 28.5258L125.621 24.114L107.843 14.6325L105.49 19.0442Z" fill="black"/>
<path d="M143.399 19.0443C144.617 18.3946 145.078 16.8803 144.428 15.662C143.779 14.4437 142.264 13.9827 141.046 14.6324L143.399 19.0443ZM141.046 14.6324L123.267 24.1134L125.619 28.5253L143.399 19.0443L141.046 14.6324Z" fill="black"/>
<path d="M158.824 28.5258C160.042 29.1755 161.556 28.7146 162.206 27.4964C162.856 26.2781 162.395 24.7638 161.176 24.114L158.824 28.5258ZM141.046 19.0442L158.824 28.5258L161.176 24.114L143.399 14.6325L141.046 19.0442Z" fill="black"/>
<path d="M178.954 19.0443C180.172 18.3946 180.633 16.8803 179.984 15.662C179.334 14.4437 177.82 13.9827 176.601 14.6324L178.954 19.0443ZM176.601 14.6324L158.822 24.1134L161.174 28.5253L178.954 19.0443L176.601 14.6324Z" fill="black"/>
<path d="M194.379 28.5258C195.597 29.1755 197.112 28.7146 197.761 27.4964C198.411 26.2781 197.95 24.7638 196.732 24.114L194.379 28.5258ZM176.601 19.0442L194.379 28.5258L196.732 24.114L178.954 14.6325L176.601 19.0442Z" fill="black"/>
<path d="M214.51 19.0443C215.728 18.3946 216.189 16.8803 215.539 15.662C214.89 14.4437 213.375 13.9827 212.157 14.6324L214.51 19.0443ZM212.157 14.6324L194.377 24.1134L196.73 28.5253L214.51 19.0443L212.157 14.6324Z" fill="black"/>
<path d="M229.935 28.5258C231.153 29.1755 232.667 28.7146 233.317 27.4964C233.967 26.2781 233.506 24.7638 232.288 24.114L229.935 28.5258ZM212.157 19.0442L229.935 28.5258L232.288 24.114L214.51 14.6325L212.157 19.0442Z" fill="black"/>
<path d="M250.065 19.0443C251.284 18.3946 251.745 16.8803 251.095 15.662C250.445 14.4437 248.931 13.9827 247.713 14.6324L250.065 19.0443ZM247.713 14.6324L229.933 24.1134L232.286 28.5253L250.065 19.0443L247.713 14.6324Z" fill="black"/>
<path d="M265.49 28.5258C266.709 29.1755 268.223 28.7146 268.873 27.4964C269.522 26.2781 269.061 24.7638 267.843 24.114L265.49 28.5258ZM247.713 19.0442L265.49 28.5258L267.843 24.114L250.066 14.6325L247.713 19.0442Z" fill="black"/>
<path d="M285.621 19.0443C286.839 18.3946 287.3 16.8803 286.651 15.662C286.001 14.4437 284.487 13.9827 283.268 14.6324L285.621 19.0443ZM283.268 14.6324L265.489 24.1134L267.841 28.5253L285.621 19.0443L283.268 14.6324Z" fill="black"/>
<path d="M301.046 28.5258C302.264 29.1755 303.779 28.7146 304.428 27.4964C305.078 26.2781 304.617 24.7638 303.399 24.114L301.046 28.5258ZM283.268 19.0442L301.046 28.5258L303.399 24.114L285.621 14.6325L283.268 19.0442Z" fill="black"/>
<path d="M320 16.8383L302.221 26.3194" stroke="black" stroke-width="5" stroke-linecap="round"/>
<path d="M336.601 17.0208C337.819 17.6705 339.334 17.2096 339.983 15.9914C340.633 14.7731 340.172 13.2588 338.954 12.609L336.601 17.0208ZM318.823 7.53922L336.601 17.0208L338.954 12.609L321.176 3.12747L318.823 7.53922Z" fill="black"/>
<path d="M356.732 7.53925C357.95 6.88958 358.411 5.37527 357.761 4.15696C357.112 2.93865 355.597 2.47768 354.379 3.12735L356.732 7.53925ZM354.379 3.12735L336.6 12.6084L338.952 17.0203L356.732 7.53925L354.379 3.12735Z" fill="black"/>
<path d="M372.157 17.0208C373.375 17.6705 374.889 17.2096 375.539 15.9914C376.189 14.7731 375.728 13.2588 374.51 12.609L372.157 17.0208ZM354.379 7.53922L372.157 17.0208L374.51 12.609L356.732 3.12747L354.379 7.53922Z" fill="black"/>
<path d="M392.287 7.53925C393.506 6.88958 393.967 5.37527 393.317 4.15696C392.667 2.93865 391.153 2.47768 389.935 3.12735L392.287 7.53925ZM389.935 3.12735L372.155 12.6084L374.508 17.0203L392.287 7.53925L389.935 3.12735Z" fill="black"/>
<path d="M407.712 17.0208C408.931 17.6705 410.445 17.2096 411.095 15.9914C411.745 14.7731 411.284 13.2588 410.065 12.609L407.712 17.0208ZM389.935 7.53922L407.712 17.0208L410.065 12.609L392.288 3.12747L389.935 7.53922Z" fill="black"/>
<path d="M427.843 7.53925C429.061 6.88958 429.522 5.37527 428.873 4.15696C428.223 2.93865 426.709 2.47768 425.49 3.12735L427.843 7.53925ZM425.49 3.12735L407.711 12.6084L410.064 17.0203L427.843 7.53925L425.49 3.12735Z" fill="black"/>
<path d="M443.268 17.0058C444.486 17.6555 446.001 17.1946 446.65 15.9764C447.3 14.7581 446.839 13.2437 445.621 12.594L443.268 17.0058ZM425.49 7.5242L443.268 17.0058L445.621 12.594L427.843 3.11245L425.49 7.5242Z" fill="black"/>
<path d="M463.399 7.52424C464.617 6.87456 465.078 5.36026 464.428 4.14195C463.779 2.92363 462.264 2.46266 461.046 3.11234L463.399 7.52424ZM461.046 3.11234L443.267 12.5934L445.619 17.0053L463.399 7.52424L461.046 3.11234Z" fill="black"/>
<path d="M478.824 17.0058C480.042 17.6555 481.556 17.1946 482.206 15.9764C482.856 14.7581 482.395 13.2437 481.176 12.594L478.824 17.0058ZM461.046 7.5242L478.824 17.0058L481.176 12.594L463.399 3.11245L461.046 7.5242Z" fill="black"/>
<path d="M498.954 7.52424C500.172 6.87456 500.633 5.36026 499.984 4.14195C499.334 2.92363 497.82 2.46266 496.601 3.11234L498.954 7.52424ZM496.601 3.11234L478.822 12.5934L481.174 17.0053L498.954 7.52424L496.601 3.11234Z" fill="black"/>
<path d="M514.379 17.0058C515.597 17.6555 517.112 17.1946 517.761 15.9764C518.411 14.7581 517.95 13.2437 516.732 12.594L514.379 17.0058ZM496.601 7.5242L514.379 17.0058L516.732 12.594L498.954 3.11245L496.601 7.5242Z" fill="black"/>
<path d="M534.51 7.52424C535.728 6.87456 536.189 5.36026 535.539 4.14195C534.89 2.92363 533.375 2.46266 532.157 3.11234L534.51 7.52424ZM532.157 3.11234L514.377 12.5934L516.73 17.0053L534.51 7.52424L532.157 3.11234Z" fill="black"/>
<path d="M549.935 17.0058C551.153 17.6555 552.667 17.1946 553.317 15.9764C553.967 14.7581 553.506 13.2437 552.288 12.594L549.935 17.0058ZM532.157 7.5242L549.935 17.0058L552.288 12.594L534.51 3.11245L532.157 7.5242Z" fill="black"/>
<path d="M570.065 7.52424C571.284 6.87456 571.745 5.36026 571.095 4.14195C570.445 2.92363 568.931 2.46266 567.713 3.11234L570.065 7.52424ZM567.713 3.11234L549.933 12.5934L552.286 17.0053L570.065 7.52424L567.713 3.11234Z" fill="black"/>
<path d="M585.49 17.0058C586.709 17.6555 588.223 17.1946 588.873 15.9764C589.522 14.7581 589.061 13.2437 587.843 12.594L585.49 17.0058ZM567.713 7.5242L585.49 17.0058L587.843 12.594L570.066 3.11245L567.713 7.5242Z" fill="black"/>
<path d="M605.621 7.52424C606.839 6.87456 607.3 5.36026 606.651 4.14195C606.001 2.92363 604.487 2.46266 603.268 3.11234L605.621 7.52424ZM603.268 3.11234L585.489 12.5934L587.841 17.0053L605.621 7.52424L603.268 3.11234Z" fill="black"/>
<path d="M621.046 17.0058C622.264 17.6555 623.779 17.1946 624.428 15.9764C625.078 14.7581 624.617 13.2437 623.399 12.594L621.046 17.0058ZM603.268 7.5242L621.046 17.0058L623.399 12.594L605.621 3.11245L603.268 7.5242Z" fill="black"/>
<path d="M641.177 7.52424C642.395 6.87456 642.856 5.36026 642.206 4.14195C641.557 2.92363 640.042 2.46266 638.824 3.11234L641.177 7.52424ZM638.824 3.11234L621.044 12.5934L623.397 17.0053L641.177 7.52424L638.824 3.11234Z" fill="black"/>
<path d="M336.601 28.5407C337.819 29.1904 339.334 28.7295 339.983 27.5113C340.633 26.293 340.172 24.7787 338.954 24.1289L336.601 28.5407ZM318.823 19.0591L336.601 28.5407L338.954 24.1289L321.176 14.6474L318.823 19.0591Z" fill="black"/>
<path d="M356.732 19.0593C357.95 18.4096 358.411 16.8953 357.761 15.677C357.112 14.4587 355.597 13.9977 354.379 14.6474L356.732 19.0593ZM354.379 14.6474L336.6 24.1284L338.952 28.5403L356.732 19.0593L354.379 14.6474Z" fill="black"/>
<path d="M372.157 28.5407C373.375 29.1904 374.889 28.7295 375.539 27.5113C376.189 26.293 375.728 24.7787 374.51 24.1289L372.157 28.5407ZM354.379 19.0591L372.157 28.5407L374.51 24.1289L356.732 14.6474L354.379 19.0591Z" fill="black"/>
<path d="M392.287 19.0593C393.506 18.4096 393.967 16.8953 393.317 15.677C392.667 14.4587 391.153 13.9977 389.935 14.6474L392.287 19.0593ZM389.935 14.6474L372.155 24.1284L374.508 28.5403L392.287 19.0593L389.935 14.6474Z" fill="black"/>
<path d="M407.712 28.5407C408.931 29.1904 410.445 28.7295 411.095 27.5113C411.745 26.293 411.284 24.7787 410.065 24.1289L407.712 28.5407ZM389.935 19.0591L407.712 28.5407L410.065 24.1289L392.288 14.6474L389.935 19.0591Z" fill="black"/>
<path d="M427.843 19.0593C429.061 18.4096 429.522 16.8953 428.873 15.677C428.223 14.4587 426.709 13.9977 425.49 14.6474L427.843 19.0593ZM425.49 14.6474L407.711 24.1284L410.064 28.5403L427.843 19.0593L425.49 14.6474Z" fill="black"/>
<path d="M443.268 28.5258C444.486 29.1755 446.001 28.7146 446.65 27.4964C447.3 26.2781 446.839 24.7638 445.621 24.114L443.268 28.5258ZM425.49 19.0442L443.268 28.5258L445.621 24.114L427.843 14.6325L425.49 19.0442Z" fill="black"/>
<path d="M463.399 19.0443C464.617 18.3946 465.078 16.8803 464.428 15.662C463.779 14.4437 462.264 13.9827 461.046 14.6324L463.399 19.0443ZM461.046 14.6324L443.267 24.1134L445.619 28.5253L463.399 19.0443L461.046 14.6324Z" fill="black"/>
<path d="M478.824 28.5258C480.042 29.1755 481.556 28.7146 482.206 27.4964C482.856 26.2781 482.395 24.7638 481.176 24.114L478.824 28.5258ZM461.046 19.0442L478.824 28.5258L481.176 24.114L463.399 14.6325L461.046 19.0442Z" fill="black"/>
<path d="M498.954 19.0443C500.172 18.3946 500.633 16.8803 499.984 15.662C499.334 14.4437 497.82 13.9827 496.601 14.6324L498.954 19.0443ZM496.601 14.6324L478.822 24.1134L481.174 28.5253L498.954 19.0443L496.601 14.6324Z" fill="black"/>
<path d="M514.379 28.5258C515.597 29.1755 517.112 28.7146 517.761 27.4964C518.411 26.2781 517.95 24.7638 516.732 24.114L514.379 28.5258ZM496.601 19.0442L514.379 28.5258L516.732 24.114L498.954 14.6325L496.601 19.0442Z" fill="black"/>
<path d="M534.51 19.0443C535.728 18.3946 536.189 16.8803 535.539 15.662C534.89 14.4437 533.375 13.9827 532.157 14.6324L534.51 19.0443ZM532.157 14.6324L514.377 24.1134L516.73 28.5253L534.51 19.0443L532.157 14.6324Z" fill="black"/>
<path d="M549.935 28.5258C551.153 29.1755 552.667 28.7146 553.317 27.4964C553.967 26.2781 553.506 24.7638 552.288 24.114L549.935 28.5258ZM532.157 19.0442L549.935 28.5258L552.288 24.114L534.51 14.6325L532.157 19.0442Z" fill="black"/>
<path d="M570.065 19.0443C571.284 18.3946 571.745 16.8803 571.095 15.662C570.445 14.4437 568.931 13.9827 567.713 14.6324L570.065 19.0443ZM567.713 14.6324L549.933 24.1134L552.286 28.5253L570.065 19.0443L567.713 14.6324Z" fill="black"/>
<path d="M585.49 28.5258C586.709 29.1755 588.223 28.7146 588.873 27.4964C589.522 26.2781 589.061 24.7638 587.843 24.114L585.49 28.5258ZM567.713 19.0442L585.49 28.5258L587.843 24.114L570.066 14.6325L567.713 19.0442Z" fill="black"/>
<path d="M605.621 19.0443C606.839 18.3946 607.3 16.8803 606.651 15.662C606.001 14.4437 604.487 13.9827 603.268 14.6324L605.621 19.0443ZM603.268 14.6324L585.489 24.1134L587.841 28.5253L605.621 19.0443L603.268 14.6324Z" fill="black"/>
<path d="M621.046 28.5258C622.264 29.1755 623.779 28.7146 624.428 27.4964C625.078 26.2781 624.617 24.7638 623.399 24.114L621.046 28.5258ZM603.268 19.0442L621.046 28.5258L623.399 24.114L605.621 14.6325L603.268 19.0442Z" fill="black"/>
<path d="M641.177 19.0443C642.395 18.3946 642.856 16.8803 642.206 15.662C641.557 14.4437 640.042 13.9827 638.824 14.6324L641.177 19.0443ZM638.824 14.6324L621.044 24.1134L623.397 28.5253L641.177 19.0443L638.824 14.6324Z" fill="black"/>
<path d="M656.601 17.0208C657.819 17.6705 659.334 17.2096 659.983 15.9914C660.633 14.7731 660.172 13.2588 658.954 12.609L656.601 17.0208ZM638.823 7.53922L656.601 17.0208L658.954 12.609L641.176 3.12747L638.823 7.53922Z" fill="black"/>
<path d="M676.732 7.53925C677.95 6.88958 678.411 5.37527 677.761 4.15696C677.112 2.93865 675.597 2.47768 674.379 3.12735L676.732 7.53925ZM674.379 3.12735L656.6 12.6084L658.952 17.0203L676.732 7.53925L674.379 3.12735Z" fill="black"/>
<path d="M692.157 17.0208C693.375 17.6705 694.889 17.2096 695.539 15.9914C696.189 14.7731 695.728 13.2588 694.51 12.609L692.157 17.0208ZM674.379 7.53922L692.157 17.0208L694.51 12.609L676.732 3.12747L674.379 7.53922Z" fill="black"/>
<path d="M712.287 7.53925C713.506 6.88958 713.967 5.37527 713.317 4.15696C712.667 2.93865 711.153 2.47768 709.935 3.12735L712.287 7.53925ZM709.935 3.12735L692.155 12.6084L694.508 17.0203L712.287 7.53925L709.935 3.12735Z" fill="black"/>
<path d="M727.712 17.0208C728.931 17.6705 730.445 17.2096 731.095 15.9914C731.745 14.7731 731.284 13.2588 730.065 12.609L727.712 17.0208ZM709.935 7.53922L727.712 17.0208L730.065 12.609L712.288 3.12747L709.935 7.53922Z" fill="black"/>
<path d="M747.843 7.53925C749.061 6.88958 749.522 5.37527 748.873 4.15696C748.223 2.93865 746.709 2.47768 745.49 3.12735L747.843 7.53925ZM745.49 3.12735L727.711 12.6084L730.064 17.0203L747.843 7.53925L745.49 3.12735Z" fill="black"/>
<path d="M763.268 17.0058C764.486 17.6555 766.001 17.1946 766.65 15.9764C767.3 14.7581 766.839 13.2437 765.621 12.594L763.268 17.0058ZM745.49 7.5242L763.268 17.0058L765.621 12.594L747.843 3.11245L745.49 7.5242Z" fill="black"/>
<path d="M783.399 7.52424C784.617 6.87456 785.078 5.36026 784.428 4.14195C783.779 2.92363 782.264 2.46266 781.046 3.11234L783.399 7.52424ZM781.046 3.11234L763.267 12.5934L765.619 17.0053L783.399 7.52424L781.046 3.11234Z" fill="black"/>
<path d="M798.823 17.0058C800.042 17.6555 801.556 17.1946 802.206 15.9764C802.855 14.7581 802.394 13.2437 801.176 12.594L798.823 17.0058ZM781.046 7.5242L798.823 17.0058L801.176 12.594L783.399 3.11245L781.046 7.5242Z" fill="black"/>
<path d="M818.954 7.52424C820.172 6.87456 820.633 5.36026 819.984 4.14195C819.334 2.92363 817.82 2.46266 816.601 3.11234L818.954 7.52424ZM816.601 3.11234L798.822 12.5934L801.174 17.0053L818.954 7.52424L816.601 3.11234Z" fill="black"/>
<path d="M834.379 17.0058C835.597 17.6555 837.112 17.1946 837.761 15.9764C838.411 14.7581 837.95 13.2437 836.732 12.594L834.379 17.0058ZM816.601 7.5242L834.379 17.0058L836.732 12.594L818.954 3.11245L816.601 7.5242Z" fill="black"/>
<path d="M854.51 7.52424C855.728 6.87456 856.189 5.36026 855.539 4.14195C854.89 2.92363 853.375 2.46266 852.157 3.11234L854.51 7.52424ZM852.157 3.11234L834.377 12.5934L836.73 17.0053L854.51 7.52424L852.157 3.11234Z" fill="black"/>
<path d="M869.935 17.0058C871.153 17.6555 872.667 17.1946 873.317 15.9764C873.967 14.7581 873.506 13.2437 872.288 12.594L869.935 17.0058ZM852.157 7.5242L869.935 17.0058L872.288 12.594L854.51 3.11245L852.157 7.5242Z" fill="black"/>
<path d="M890.065 7.52424C891.284 6.87456 891.745 5.36026 891.095 4.14195C890.445 2.92363 888.931 2.46266 887.713 3.11234L890.065 7.52424ZM887.713 3.11234L869.933 12.5934L872.286 17.0053L890.065 7.52424L887.713 3.11234Z" fill="black"/>
<path d="M905.49 17.0058C906.709 17.6555 908.223 17.1946 908.873 15.9764C909.522 14.7581 909.061 13.2437 907.843 12.594L905.49 17.0058ZM887.713 7.5242L905.49 17.0058L907.843 12.594L890.066 3.11245L887.713 7.5242Z" fill="black"/>
<path d="M925.621 7.52424C926.839 6.87456 927.3 5.36026 926.651 4.14195C926.001 2.92363 924.487 2.46266 923.268 3.11234L925.621 7.52424ZM923.268 3.11234L905.489 12.5934L907.841 17.0053L925.621 7.52424L923.268 3.11234Z" fill="black"/>
<path d="M941.046 17.0058C942.264 17.6555 943.779 17.1946 944.428 15.9764C945.078 14.7581 944.617 13.2437 943.399 12.594L941.046 17.0058ZM923.268 7.5242L941.046 17.0058L943.399 12.594L925.621 3.11245L923.268 7.5242Z" fill="black"/>
<path d="M961.176 7.52424C962.395 6.87456 962.856 5.36026 962.206 4.14195C961.556 2.92363 960.042 2.46266 958.824 3.11234L961.176 7.52424ZM958.824 3.11234L941.044 12.5934L943.397 17.0053L961.176 7.52424L958.824 3.11234Z" fill="black"/>
<path d="M656.601 28.5407C657.819 29.1904 659.334 28.7295 659.983 27.5113C660.633 26.293 660.172 24.7787 658.954 24.1289L656.601 28.5407ZM638.823 19.0591L656.601 28.5407L658.954 24.1289L641.176 14.6474L638.823 19.0591Z" fill="black"/>
<path d="M676.732 19.0593C677.95 18.4096 678.411 16.8953 677.761 15.677C677.112 14.4587 675.597 13.9977 674.379 14.6474L676.732 19.0593ZM674.379 14.6474L656.6 24.1284L658.952 28.5403L676.732 19.0593L674.379 14.6474Z" fill="black"/>
<path d="M692.157 28.5407C693.375 29.1904 694.889 28.7295 695.539 27.5113C696.189 26.293 695.728 24.7787 694.51 24.1289L692.157 28.5407ZM674.379 19.0591L692.157 28.5407L694.51 24.1289L676.732 14.6474L674.379 19.0591Z" fill="black"/>
<path d="M712.287 19.0593C713.506 18.4096 713.967 16.8953 713.317 15.677C712.667 14.4587 711.153 13.9977 709.935 14.6474L712.287 19.0593ZM709.935 14.6474L692.155 24.1284L694.508 28.5403L712.287 19.0593L709.935 14.6474Z" fill="black"/>
<path d="M727.712 28.5407C728.931 29.1904 730.445 28.7295 731.095 27.5113C731.745 26.293 731.284 24.7787 730.065 24.1289L727.712 28.5407ZM709.935 19.0591L727.712 28.5407L730.065 24.1289L712.288 14.6474L709.935 19.0591Z" fill="black"/>
<path d="M747.843 19.0593C749.061 18.4096 749.522 16.8953 748.873 15.677C748.223 14.4587 746.709 13.9977 745.49 14.6474L747.843 19.0593ZM745.49 14.6474L727.711 24.1284L730.064 28.5403L747.843 19.0593L745.49 14.6474Z" fill="black"/>
<path d="M763.268 28.5258C764.486 29.1755 766.001 28.7146 766.65 27.4964C767.3 26.2781 766.839 24.7638 765.621 24.114L763.268 28.5258ZM745.49 19.0442L763.268 28.5258L765.621 24.114L747.843 14.6325L745.49 19.0442Z" fill="black"/>
<path d="M783.399 19.0443C784.617 18.3946 785.078 16.8803 784.428 15.662C783.779 14.4437 782.264 13.9827 781.046 14.6324L783.399 19.0443ZM781.046 14.6324L763.267 24.1134L765.619 28.5253L783.399 19.0443L781.046 14.6324Z" fill="black"/>
<path d="M798.823 28.5258C800.042 29.1755 801.556 28.7146 802.206 27.4964C802.855 26.2781 802.394 24.7638 801.176 24.114L798.823 28.5258ZM781.046 19.0442L798.823 28.5258L801.176 24.114L783.399 14.6325L781.046 19.0442Z" fill="black"/>
<path d="M818.954 19.0443C820.172 18.3946 820.633 16.8803 819.984 15.662C819.334 14.4437 817.82 13.9827 816.601 14.6324L818.954 19.0443ZM816.601 14.6324L798.822 24.1134L801.174 28.5253L818.954 19.0443L816.601 14.6324Z" fill="black"/>
<path d="M834.379 28.5258C835.597 29.1755 837.112 28.7146 837.761 27.4964C838.411 26.2781 837.95 24.7638 836.732 24.114L834.379 28.5258ZM816.601 19.0442L834.379 28.5258L836.732 24.114L818.954 14.6325L816.601 19.0442Z" fill="black"/>
<path d="M854.51 19.0443C855.728 18.3946 856.189 16.8803 855.539 15.662C854.89 14.4437 853.375 13.9827 852.157 14.6324L854.51 19.0443ZM852.157 14.6324L834.377 24.1134L836.73 28.5253L854.51 19.0443L852.157 14.6324Z" fill="black"/>
<path d="M869.935 28.5258C871.153 29.1755 872.667 28.7146 873.317 27.4964C873.967 26.2781 873.506 24.7638 872.288 24.114L869.935 28.5258ZM852.157 19.0442L869.935 28.5258L872.288 24.114L854.51 14.6325L852.157 19.0442Z" fill="black"/>
<path d="M890.065 19.0443C891.284 18.3946 891.745 16.8803 891.095 15.662C890.445 14.4437 888.931 13.9827 887.713 14.6324L890.065 19.0443ZM887.713 14.6324L869.933 24.1134L872.286 28.5253L890.065 19.0443L887.713 14.6324Z" fill="black"/>
<path d="M905.49 28.5258C906.709 29.1755 908.223 28.7146 908.873 27.4964C909.522 26.2781 909.061 24.7638 907.843 24.114L905.49 28.5258ZM887.713 19.0442L905.49 28.5258L907.843 24.114L890.066 14.6325L887.713 19.0442Z" fill="black"/>
<path d="M925.621 19.0443C926.839 18.3946 927.3 16.8803 926.651 15.662C926.001 14.4437 924.487 13.9827 923.268 14.6324L925.621 19.0443ZM923.268 14.6324L905.489 24.1134L907.841 28.5253L925.621 19.0443L923.268 14.6324Z" fill="black"/>
<path d="M941.046 28.5258C942.264 29.1755 943.779 28.7146 944.428 27.4964C945.078 26.2781 944.617 24.7638 943.399 24.114L941.046 28.5258ZM923.268 19.0442L941.046 28.5258L943.399 24.114L925.621 14.6325L923.268 19.0442Z" fill="black"/>
<path d="M960 16.8383L942.221 26.3194" stroke="black" stroke-width="5" stroke-linecap="round"/>
<path d="M976.601 17.0208C977.819 17.6705 979.334 17.2096 979.983 15.9914C980.633 14.7731 980.172 13.2588 978.954 12.609L976.601 17.0208ZM958.823 7.53922L976.601 17.0208L978.954 12.609L961.176 3.12747L958.823 7.53922Z" fill="black"/>
<path d="M996.732 7.53925C997.95 6.88958 998.411 5.37527 997.761 4.15696C997.112 2.93865 995.597 2.47768 994.379 3.12735L996.732 7.53925ZM994.379 3.12735L976.6 12.6084L978.952 17.0203L996.732 7.53925L994.379 3.12735Z" fill="black"/>
<path d="M1012.16 17.0208C1013.38 17.6705 1014.89 17.2096 1015.54 15.9914C1016.19 14.7731 1015.73 13.2588 1014.51 12.609L1012.16 17.0208ZM994.379 7.53922L1012.16 17.0208L1014.51 12.609L996.732 3.12747L994.379 7.53922Z" fill="black"/>
<path d="M1032.29 7.53925C1033.51 6.88958 1033.97 5.37527 1033.32 4.15696C1032.67 2.93865 1031.15 2.47768 1029.93 3.12735L1032.29 7.53925ZM1029.93 3.12735L1012.16 12.6084L1014.51 17.0203L1032.29 7.53925L1029.93 3.12735Z" fill="black"/>
<path d="M1047.71 17.0208C1048.93 17.6705 1050.45 17.2096 1051.09 15.9914C1051.74 14.7731 1051.28 13.2588 1050.07 12.609L1047.71 17.0208ZM1029.93 7.53922L1047.71 17.0208L1050.07 12.609L1032.29 3.12747L1029.93 7.53922Z" fill="black"/>
<path d="M1067.84 7.53925C1069.06 6.88958 1069.52 5.37527 1068.87 4.15696C1068.22 2.93865 1066.71 2.47768 1065.49 3.12735L1067.84 7.53925ZM1065.49 3.12735L1047.71 12.6084L1050.06 17.0203L1067.84 7.53925L1065.49 3.12735Z" fill="black"/>
<path d="M1083.27 17.0058C1084.49 17.6555 1086 17.1946 1086.65 15.9764C1087.3 14.7581 1086.84 13.2437 1085.62 12.594L1083.27 17.0058ZM1065.49 7.5242L1083.27 17.0058L1085.62 12.594L1067.84 3.11245L1065.49 7.5242Z" fill="black"/>
<path d="M1103.4 7.52424C1104.62 6.87456 1105.08 5.36026 1104.43 4.14195C1103.78 2.92363 1102.26 2.46266 1101.05 3.11234L1103.4 7.52424ZM1101.05 3.11234L1083.27 12.5934L1085.62 17.0053L1103.4 7.52424L1101.05 3.11234Z" fill="black"/>
<path d="M1118.82 17.0058C1120.04 17.6555 1121.56 17.1946 1122.21 15.9764C1122.86 14.7581 1122.39 13.2437 1121.18 12.594L1118.82 17.0058ZM1101.05 7.5242L1118.82 17.0058L1121.18 12.594L1103.4 3.11245L1101.05 7.5242Z" fill="black"/>
<path d="M1138.95 7.52424C1140.17 6.87456 1140.63 5.36026 1139.98 4.14195C1139.33 2.92363 1137.82 2.46266 1136.6 3.11234L1138.95 7.52424ZM1136.6 3.11234L1118.82 12.5934L1121.17 17.0053L1138.95 7.52424L1136.6 3.11234Z" fill="black"/>
<path d="M1154.38 17.0058C1155.6 17.6555 1157.11 17.1946 1157.76 15.9764C1158.41 14.7581 1157.95 13.2437 1156.73 12.594L1154.38 17.0058ZM1136.6 7.5242L1154.38 17.0058L1156.73 12.594L1138.95 3.11245L1136.6 7.5242Z" fill="black"/>
<path d="M1174.51 7.52424C1175.73 6.87456 1176.19 5.36026 1175.54 4.14195C1174.89 2.92363 1173.38 2.46266 1172.16 3.11234L1174.51 7.52424ZM1172.16 3.11234L1154.38 12.5934L1156.73 17.0053L1174.51 7.52424L1172.16 3.11234Z" fill="black"/>
<path d="M1189.93 17.0058C1191.15 17.6555 1192.67 17.1946 1193.32 15.9764C1193.97 14.7581 1193.51 13.2437 1192.29 12.594L1189.93 17.0058ZM1172.16 7.5242L1189.93 17.0058L1192.29 12.594L1174.51 3.11245L1172.16 7.5242Z" fill="black"/>
<path d="M1210.07 7.52424C1211.28 6.87456 1211.74 5.36026 1211.09 4.14195C1210.45 2.92363 1208.93 2.46266 1207.71 3.11234L1210.07 7.52424ZM1207.71 3.11234L1189.93 12.5934L1192.29 17.0053L1210.07 7.52424L1207.71 3.11234Z" fill="black"/>
<path d="M1225.49 17.0058C1226.71 17.6555 1228.22 17.1946 1228.87 15.9764C1229.52 14.7581 1229.06 13.2437 1227.84 12.594L1225.49 17.0058ZM1207.71 7.5242L1225.49 17.0058L1227.84 12.594L1210.07 3.11245L1207.71 7.5242Z" fill="black"/>
<path d="M1245.62 7.52424C1246.84 6.87456 1247.3 5.36026 1246.65 4.14195C1246 2.92363 1244.49 2.46266 1243.27 3.11234L1245.62 7.52424ZM1243.27 3.11234L1225.49 12.5934L1227.84 17.0053L1245.62 7.52424L1243.27 3.11234Z" fill="black"/>
<path d="M1261.05 17.0058C1262.26 17.6555 1263.78 17.1946 1264.43 15.9764C1265.08 14.7581 1264.62 13.2437 1263.4 12.594L1261.05 17.0058ZM1243.27 7.5242L1261.05 17.0058L1263.4 12.594L1245.62 3.11245L1243.27 7.5242Z" fill="black"/>
<path d="M1280 5.31829L1262.22 14.7994" stroke="black" stroke-width="5"/>
<path d="M976.601 28.5407C977.819 29.1904 979.334 28.7295 979.983 27.5113C980.633 26.293 980.172 24.7787 978.954 24.1289L976.601 28.5407ZM958.823 19.0591L976.601 28.5407L978.954 24.1289L961.176 14.6474L958.823 19.0591Z" fill="black"/>
<path d="M996.732 19.0593C997.95 18.4096 998.411 16.8953 997.761 15.677C997.112 14.4587 995.597 13.9977 994.379 14.6474L996.732 19.0593ZM994.379 14.6474L976.6 24.1284L978.952 28.5403L996.732 19.0593L994.379 14.6474Z" fill="black"/>
<path d="M1012.16 28.5407C1013.38 29.1904 1014.89 28.7295 1015.54 27.5113C1016.19 26.293 1015.73 24.7787 1014.51 24.1289L1012.16 28.5407ZM994.379 19.0591L1012.16 28.5407L1014.51 24.1289L996.732 14.6474L994.379 19.0591Z" fill="black"/>
<path d="M1032.29 19.0593C1033.51 18.4096 1033.97 16.8953 1033.32 15.677C1032.67 14.4587 1031.15 13.9977 1029.93 14.6474L1032.29 19.0593ZM1029.93 14.6474L1012.16 24.1284L1014.51 28.5403L1032.29 19.0593L1029.93 14.6474Z" fill="black"/>
<path d="M1047.71 28.5407C1048.93 29.1904 1050.45 28.7295 1051.09 27.5113C1051.74 26.293 1051.28 24.7787 1050.07 24.1289L1047.71 28.5407ZM1029.93 19.0591L1047.71 28.5407L1050.07 24.1289L1032.29 14.6474L1029.93 19.0591Z" fill="black"/>
<path d="M1067.84 19.0593C1069.06 18.4096 1069.52 16.8953 1068.87 15.677C1068.22 14.4587 1066.71 13.9977 1065.49 14.6474L1067.84 19.0593ZM1065.49 14.6474L1047.71 24.1284L1050.06 28.5403L1067.84 19.0593L1065.49 14.6474Z" fill="black"/>
<path d="M1083.27 28.5258C1084.49 29.1755 1086 28.7146 1086.65 27.4964C1087.3 26.2781 1086.84 24.7638 1085.62 24.114L1083.27 28.5258ZM1065.49 19.0442L1083.27 28.5258L1085.62 24.114L1067.84 14.6325L1065.49 19.0442Z" fill="black"/>
<path d="M1103.4 19.0443C1104.62 18.3946 1105.08 16.8803 1104.43 15.662C1103.78 14.4437 1102.26 13.9827 1101.05 14.6324L1103.4 19.0443ZM1101.05 14.6324L1083.27 24.1134L1085.62 28.5253L1103.4 19.0443L1101.05 14.6324Z" fill="black"/>
<path d="M1118.82 28.5258C1120.04 29.1755 1121.56 28.7146 1122.21 27.4964C1122.86 26.2781 1122.39 24.7638 1121.18 24.114L1118.82 28.5258ZM1101.05 19.0442L1118.82 28.5258L1121.18 24.114L1103.4 14.6325L1101.05 19.0442Z" fill="black"/>
<path d="M1138.95 19.0443C1140.17 18.3946 1140.63 16.8803 1139.98 15.662C1139.33 14.4437 1137.82 13.9827 1136.6 14.6324L1138.95 19.0443ZM1136.6 14.6324L1118.82 24.1134L1121.17 28.5253L1138.95 19.0443L1136.6 14.6324Z" fill="black"/>
<path d="M1154.38 28.5258C1155.6 29.1755 1157.11 28.7146 1157.76 27.4964C1158.41 26.2781 1157.95 24.7638 1156.73 24.114L1154.38 28.5258ZM1136.6 19.0442L1154.38 28.5258L1156.73 24.114L1138.95 14.6325L1136.6 19.0442Z" fill="black"/>
<path d="M1174.51 19.0443C1175.73 18.3946 1176.19 16.8803 1175.54 15.662C1174.89 14.4437 1173.38 13.9827 1172.16 14.6324L1174.51 19.0443ZM1172.16 14.6324L1154.38 24.1134L1156.73 28.5253L1174.51 19.0443L1172.16 14.6324Z" fill="black"/>
<path d="M1189.93 28.5258C1191.15 29.1755 1192.67 28.7146 1193.32 27.4964C1193.97 26.2781 1193.51 24.7638 1192.29 24.114L1189.93 28.5258ZM1172.16 19.0442L1189.93 28.5258L1192.29 24.114L1174.51 14.6325L1172.16 19.0442Z" fill="black"/>
<path d="M1210.07 19.0443C1211.28 18.3946 1211.74 16.8803 1211.09 15.662C1210.45 14.4437 1208.93 13.9827 1207.71 14.6324L1210.07 19.0443ZM1207.71 14.6324L1189.93 24.1134L1192.29 28.5253L1210.07 19.0443L1207.71 14.6324Z" fill="black"/>
<path d="M1225.49 28.5258C1226.71 29.1755 1228.22 28.7146 1228.87 27.4964C1229.52 26.2781 1229.06 24.7638 1227.84 24.114L1225.49 28.5258ZM1207.71 19.0442L1225.49 28.5258L1227.84 24.114L1210.07 14.6325L1207.71 19.0442Z" fill="black"/>
<path d="M1245.62 19.0443C1246.84 18.3946 1247.3 16.8803 1246.65 15.662C1246 14.4437 1244.49 13.9827 1243.27 14.6324L1245.62 19.0443ZM1243.27 14.6324L1225.49 24.1134L1227.84 28.5253L1245.62 19.0443L1243.27 14.6324Z" fill="black"/>
<path d="M1261.05 28.5258C1262.26 29.1755 1263.78 28.7146 1264.43 27.4964C1265.08 26.2781 1264.62 24.7638 1263.4 24.114L1261.05 28.5258ZM1243.27 19.0442L1261.05 28.5258L1263.4 24.114L1245.62 14.6325L1243.27 19.0442Z" fill="black"/>
<path d="M1280 16.8383L1262.22 26.3194" stroke="black" stroke-width="5"/>
</svg>
