<svg width="100" height="100" viewBox="0 0 100 100" fill="none" xmlns="http://www.w3.org/2000/svg">
<circle cx="50" cy="50" r="50" fill="white"/>
<mask id="path-2-inside-1_11_3" fill="white">
<path fill-rule="evenodd" clip-rule="evenodd" d="M65.4053 49.7842L50 5.55557L34.5948 49.7842H34.4445L34.5196 50L34.4444 50.2158H34.5948L50 94.4444L65.4053 50.2158H65.5556L65.4804 50L65.5556 49.7842H65.4053Z"/>
</mask>
<path d="M50 5.55557L51.8887 4.89772L50 -0.524794L48.1113 4.89772L50 5.55557ZM65.4053 49.7842L63.5165 50.4421L63.984 51.7842H65.4053V49.7842ZM34.5948 49.7842V51.7842H36.016L36.4835 50.4421L34.5948 49.7842ZM34.4445 49.7842V47.7842H31.63L32.5557 50.4421L34.4445 49.7842ZM34.5196 50L36.4083 50.6579L36.6374 50L36.4083 49.3421L34.5196 50ZM34.4444 50.2158L32.5557 49.5579L31.63 52.2158H34.4444V50.2158ZM34.5948 50.2158L36.4835 49.5579L36.016 48.2158H34.5948V50.2158ZM50 94.4444L48.1113 95.1023L50 100.525L51.8887 95.1023L50 94.4444ZM65.4053 50.2158V48.2158H63.984L63.5165 49.5579L65.4053 50.2158ZM65.5556 50.2158V52.2158H68.37L67.4443 49.5579L65.5556 50.2158ZM65.4804 50L63.5917 49.3422L63.3626 50L63.5917 50.6579L65.4804 50ZM65.5556 49.7842L67.4443 50.4421L68.37 47.7842H65.5556V49.7842ZM48.1113 6.21343L63.5165 50.4421L67.294 49.1264L51.8887 4.89772L48.1113 6.21343ZM36.4835 50.4421L51.8887 6.21343L48.1113 4.89772L32.706 49.1264L36.4835 50.4421ZM34.4445 51.7842H34.5948V47.7842H34.4445V51.7842ZM36.4083 49.3421L36.3332 49.1264L32.5557 50.4421L32.6309 50.6579L36.4083 49.3421ZM36.3332 50.8736L36.4083 50.6579L32.6309 49.3421L32.5557 49.5579L36.3332 50.8736ZM34.5948 48.2158H34.4444V52.2158H34.5948V48.2158ZM51.8887 93.7866L36.4835 49.5579L32.706 50.8736L48.1113 95.1023L51.8887 93.7866ZM63.5165 49.5579L48.1113 93.7866L51.8887 95.1023L67.294 50.8736L63.5165 49.5579ZM65.5556 48.2158H65.4053V52.2158H65.5556V48.2158ZM63.5917 50.6579L63.6668 50.8736L67.4443 49.5579L67.3691 49.3422L63.5917 50.6579ZM63.6669 49.1264L63.5917 49.3422L67.3691 50.6579L67.4443 50.4421L63.6669 49.1264ZM65.4053 51.7842H65.5556V47.7842H65.4053V51.7842Z" fill="black" mask="url(#path-2-inside-1_11_3)"/>
<path fill-rule="evenodd" clip-rule="evenodd" d="M34.4444 48.8889L26.6667 71.1111L27.1795 71.2906L26.82 71.3984L33.4866 93.6207L34.4444 93.3333L27.7778 71.1111L27.7201 71.1284L35.3883 49.2192L34.4444 48.8889Z" fill="black"/>
<path d="M26.6667 71.1111L26.1947 70.9459L26.0296 71.4179L26.5015 71.583L26.6667 71.1111ZM34.4444 48.8889L34.6096 48.417L34.1377 48.2518L33.9725 48.7237L34.4444 48.8889ZM27.1795 71.2906L27.3232 71.7695L28.7976 71.3272L27.3447 70.8187L27.1795 71.2906ZM26.82 71.3984L26.6763 70.9195L26.1974 71.0632L26.341 71.5421L26.82 71.3984ZM33.4866 93.6207L33.0077 93.7643L33.1514 94.2433L33.6303 94.0996L33.4866 93.6207ZM34.4444 93.3333L34.5881 93.8122L35.067 93.6686L34.9234 93.1897L34.4444 93.3333ZM27.7778 71.1111L28.2567 70.9674L28.113 70.4885L27.6341 70.6322L27.7778 71.1111ZM27.7201 71.1284L27.2482 70.9632L26.9241 71.8892L27.8638 71.6073L27.7201 71.1284ZM35.3883 49.2192L35.8602 49.3844L36.0254 48.9125L35.5535 48.7473L35.3883 49.2192ZM27.1386 71.2763L34.9164 49.0541L33.9725 48.7237L26.1947 70.9459L27.1386 71.2763ZM27.3447 70.8187L26.8318 70.6392L26.5015 71.583L27.0143 71.7625L27.3447 70.8187ZM26.9636 71.8774L27.3232 71.7695L27.0358 70.8117L26.6763 70.9195L26.9636 71.8774ZM33.9655 93.477L27.2989 71.2548L26.341 71.5421L33.0077 93.7643L33.9655 93.477ZM34.3008 92.8544L33.3429 93.1418L33.6303 94.0996L34.5881 93.8122L34.3008 92.8544ZM27.2989 71.2548L33.9655 93.477L34.9234 93.1897L28.2567 70.9674L27.2989 71.2548ZM27.8638 71.6073L27.9215 71.59L27.6341 70.6322L27.5764 70.6495L27.8638 71.6073ZM34.9164 49.0541L27.2482 70.9632L28.192 71.2936L35.8602 49.3844L34.9164 49.0541ZM34.2793 49.3608L35.2231 49.6912L35.5535 48.7473L34.6096 48.417L34.2793 49.3608Z" fill="black"/>
<path fill-rule="evenodd" clip-rule="evenodd" d="M33.3333 6.66666L26.6667 27.7778L27.2372 27.9579L26.8291 28.094L34.6069 51.4273L35.5556 51.1111L27.7778 27.7778L27.708 27.801L34.2869 6.96779L33.3333 6.66666Z" fill="black"/>
<path d="M26.6667 27.7778L26.1899 27.6272L26.0393 28.104L26.5161 28.2546L26.6667 27.7778ZM33.3333 6.66666L33.4839 6.18987L33.0071 6.0393L32.8565 6.51609L33.3333 6.66666ZM27.2372 27.9579L27.3953 28.4323L28.8569 27.9451L27.3878 27.4812L27.2372 27.9579ZM26.8291 28.094L26.671 27.6196L26.1967 27.7778L26.3548 28.2521L26.8291 28.094ZM34.6069 51.4273L34.1325 51.5854L34.2907 52.0598L34.765 51.9017L34.6069 51.4273ZM35.5556 51.1111L35.7137 51.5854L36.188 51.4273L36.0299 50.953L35.5556 51.1111ZM27.7778 27.7778L28.2521 27.6196L28.094 27.1453L27.6197 27.3034L27.7778 27.7778ZM27.708 27.801L27.2312 27.6505L26.936 28.5854L27.8661 28.2754L27.708 27.801ZM34.2869 6.96779L34.7637 7.11835L34.9143 6.64156L34.4375 6.491L34.2869 6.96779ZM27.1435 27.9283L33.8101 6.81722L32.8565 6.51609L26.1899 27.6272L27.1435 27.9283ZM27.3878 27.4812L26.8172 27.301L26.5161 28.2546L27.0867 28.4347L27.3878 27.4812ZM26.9872 28.5683L27.3953 28.4323L27.0791 27.4836L26.671 27.6196L26.9872 28.5683ZM35.0812 51.2692L27.3034 27.9359L26.3548 28.2521L34.1325 51.5854L35.0812 51.2692ZM35.3975 50.6368L34.4488 50.953L34.765 51.9017L35.7137 51.5854L35.3975 50.6368ZM27.3034 27.9359L35.0812 51.2692L36.0299 50.953L28.2521 27.6196L27.3034 27.9359ZM27.8661 28.2754L27.9359 28.2521L27.6197 27.3034L27.5499 27.3267L27.8661 28.2754ZM33.8101 6.81722L27.2312 27.6505L28.1848 27.9516L34.7637 7.11835L33.8101 6.81722ZM33.1828 7.14345L34.1364 7.44458L34.4375 6.491L33.4839 6.18987L33.1828 7.14345Z" fill="black"/>
<path fill-rule="evenodd" clip-rule="evenodd" d="M66.6667 93.3333L73.3333 71.1111L72.7288 70.9298L73.1637 70.7741L65.3236 48.8712L64.3821 49.2082L72.2222 71.1111L72.2974 71.0842L65.7088 93.046L66.6667 93.3333Z" fill="black"/>
<path d="M73.3333 71.1111L73.8122 71.2548L73.9559 70.7759L73.477 70.6322L73.3333 71.1111ZM66.6667 93.3333L66.523 93.8123L67.0019 93.9559L67.1456 93.477L66.6667 93.3333ZM72.7288 70.9298L72.5603 70.459L71.1283 70.9716L72.5852 71.4087L72.7288 70.9298ZM73.1637 70.7741L73.3322 71.2449L73.803 71.0764L73.6345 70.6056L73.1637 70.7741ZM65.3236 48.8712L65.7943 48.7027L65.6258 48.2319L65.1551 48.4004L65.3236 48.8712ZM64.3821 49.2082L64.2136 48.7374L63.7428 48.9059L63.9113 49.3767L64.3821 49.2082ZM72.2222 71.1111L71.7515 71.2796L71.92 71.7504L72.3907 71.5819L72.2222 71.1111ZM72.2974 71.0842L72.7763 71.2279L73.0607 70.2799L72.1289 70.6135L72.2974 71.0842ZM65.7088 93.046L65.2299 92.9023L65.0863 93.3812L65.5652 93.5249L65.7088 93.046ZM72.8544 70.9674L66.1878 93.1897L67.1456 93.477L73.8122 71.2548L72.8544 70.9674ZM72.5852 71.4087L73.1897 71.59L73.477 70.6322L72.8725 70.4509L72.5852 71.4087ZM72.9952 70.3034L72.5603 70.459L72.8974 71.4005L73.3322 71.2449L72.9952 70.3034ZM64.8528 49.0397L72.693 70.9426L73.6345 70.6056L65.7943 48.7027L64.8528 49.0397ZM64.5506 49.6789L65.4921 49.3419L65.1551 48.4004L64.2136 48.7374L64.5506 49.6789ZM72.693 70.9426L64.8528 49.0397L63.9113 49.3767L71.7515 71.2796L72.693 70.9426ZM72.1289 70.6135L72.0537 70.6404L72.3907 71.5819L72.4659 71.555L72.1289 70.6135ZM66.1878 93.1897L72.7763 71.2279L71.8185 70.9405L65.2299 92.9023L66.1878 93.1897ZM66.8103 92.8544L65.8525 92.5671L65.5652 93.5249L66.523 93.8123L66.8103 92.8544Z" fill="black"/>
<path fill-rule="evenodd" clip-rule="evenodd" d="M65.5556 51.4625L73.3333 27.7778L72.7886 27.5989L73.1758 27.4766L66.5091 6.36552L65.5556 6.66666L72.2222 27.7778L72.2876 27.7571L64.6055 51.1505L65.5556 51.4625Z" fill="black"/>
<path d="M73.3333 27.7778L73.8084 27.9338L73.9644 27.4587L73.4893 27.3027L73.3333 27.7778ZM65.5556 51.4625L65.3996 51.9375L65.8746 52.0935L66.0306 51.6185L65.5556 51.4625ZM72.7886 27.5989L72.6381 27.1221L71.1577 27.5896L72.6326 28.0739L72.7886 27.5989ZM73.1758 27.4766L73.3264 27.9534L73.8032 27.8029L73.6526 27.3261L73.1758 27.4766ZM66.5091 6.36552L66.9859 6.21496L66.8354 5.73817L66.3586 5.88873L66.5091 6.36552ZM65.5556 6.66666L65.405 6.18987L64.9282 6.34043L65.0788 6.81722L65.5556 6.66666ZM72.2222 27.7778L71.7454 27.9283L71.896 28.4051L72.3728 28.2546L72.2222 27.7778ZM72.2876 27.7571L72.7626 27.9131L73.0668 26.9867L72.137 27.2803L72.2876 27.7571ZM64.6055 51.1505L64.1304 50.9945L63.9744 51.4695L64.4495 51.6255L64.6055 51.1505ZM72.8583 27.6218L65.0805 51.3065L66.0306 51.6185L73.8084 27.9338L72.8583 27.6218ZM72.6326 28.0739L73.1773 28.2528L73.4893 27.3027L72.9446 27.1239L72.6326 28.0739ZM73.0252 26.9998L72.6381 27.1221L72.9392 28.0757L73.3264 27.9534L73.0252 26.9998ZM66.0323 6.51609L72.699 27.6272L73.6526 27.3261L66.9859 6.21496L66.0323 6.51609ZM65.7061 7.14345L66.6597 6.84232L66.3586 5.88873L65.405 6.18987L65.7061 7.14345ZM72.699 27.6272L66.0323 6.51609L65.0788 6.81722L71.7454 27.9283L72.699 27.6272ZM72.137 27.2803L72.0717 27.301L72.3728 28.2546L72.4381 28.2339L72.137 27.2803ZM65.0805 51.3065L72.7626 27.9131L71.8125 27.6011L64.1304 50.9945L65.0805 51.3065ZM65.7116 50.9874L64.7615 50.6754L64.4495 51.6255L65.3996 51.9375L65.7116 50.9874Z" fill="black"/>
<ellipse cx="73.3333" cy="50" rx="2.22222" ry="2.22222" fill="black"/>
<ellipse cx="73.3333" cy="50" rx="2.22222" ry="2.22222" fill="black"/>
<ellipse cx="73.3333" cy="50" rx="2.22222" ry="2.22222" fill="black"/>
<ellipse cx="83.3333" cy="50" rx="2.22222" ry="2.22222" fill="black"/>
<ellipse cx="83.3333" cy="50" rx="2.22222" ry="2.22222" fill="black"/>
<ellipse cx="83.3333" cy="50" rx="2.22222" ry="2.22222" fill="black"/>
<ellipse cx="16.6667" cy="50" rx="2.22222" ry="2.22222" fill="black"/>
<ellipse cx="16.6667" cy="50" rx="2.22222" ry="2.22222" fill="black"/>
<ellipse cx="16.6667" cy="50" rx="2.22222" ry="2.22222" fill="black"/>
<ellipse cx="26.6667" cy="50" rx="2.22222" ry="2.22222" fill="black"/>
<ellipse cx="26.6667" cy="50" rx="2.22222" ry="2.22222" fill="black"/>
<ellipse cx="26.6667" cy="50" rx="2.22222" ry="2.22222" fill="black"/>
</svg>
