<svg width="54" height="54" viewBox="0 0 54 54" fill="none" xmlns="http://www.w3.org/2000/svg">
<circle cx="27" cy="27" r="26" stroke="black" stroke-width="2"/>
<path d="M26.9634 5.71567L34.8207 27" stroke="black" stroke-width="2" stroke-linecap="round"/>
<path d="M26.9633 48.2843L19.1061 27" stroke="black" stroke-width="2" stroke-linecap="round"/>
<path d="M19.1062 27L26.9634 5.71568" stroke="black" stroke-width="2" stroke-linecap="round"/>
<path d="M34.8206 27L26.9633 48.2843" stroke="black" stroke-width="2" stroke-linecap="round"/>
<path d="M37.7716 38.3759C37.9544 38.8966 38.4901 39.0939 38.968 38.8164C39.446 38.539 39.6853 37.8919 39.5025 37.3711L37.7716 38.3759ZM34.8207 27L33.9553 27.5024L37.7716 38.3759L38.6371 37.8735L39.5025 37.3711L35.6862 26.4976L34.8207 27Z" fill="black"/>
<path d="M38.6372 37.8735L34.8208 48.3421" stroke="black" stroke-width="2"/>
<path d="M37.7807 16.9974C37.9634 17.5182 38.4991 17.7154 38.9771 17.4379C39.455 17.1605 39.6943 16.5134 39.5116 15.9926L37.7807 16.9974ZM34.8297 5.62152L33.9643 6.1239L37.7807 16.9974L38.6461 16.495L39.5116 15.9926L35.6952 5.11913L34.8297 5.62152Z" fill="black"/>
<path d="M38.6462 16.495L34.8298 26.9637" stroke="black" stroke-width="2"/>
<path d="M16.1285 15.6241C15.9457 15.1034 15.4101 14.9061 14.9321 15.1836C14.4541 15.461 14.2148 16.1081 14.3976 16.6289L16.1285 15.6241ZM19.0794 27L19.9449 26.4976L16.1285 15.6241L15.263 16.1265L14.3976 16.6289L18.214 27.5024L19.0794 27Z" fill="black"/>
<path d="M15.2632 16.1265L19.0796 5.65786" stroke="black" stroke-width="2"/>
<path d="M16.1192 37.0026C15.9365 36.4818 15.4008 36.2846 14.9228 36.5621C14.4449 36.8395 14.2056 37.4866 14.3883 38.0074L16.1192 37.0026ZM19.0702 48.3785L19.9356 47.8761L16.1192 37.0026L15.2538 37.505L14.3883 38.0074L18.2047 48.8809L19.0702 48.3785Z" fill="black"/>
<path d="M15.2537 37.505L19.0701 27.0363" stroke="black" stroke-width="2"/>
<circle cx="40.8501" cy="27.05" r="0.75" fill="black"/>
<circle cx="45.05" cy="27.05" r="0.75" fill="black"/>
<circle cx="8.94995" cy="27.05" r="0.75" fill="black"/>
<circle cx="13.1499" cy="27.05" r="0.75" fill="black"/>
</svg>
